<svg width="424" height="422" viewBox="0 0 424 422" fill="none" xmlns="http://www.w3.org/2000/svg">
<g id="Frame 1">
<g id="Ellipse 4">
<g filter="url(#filter0_i_16_30)">
<circle cx="212" cy="211" r="50" fill="#AB916B" fill-opacity="0.35"/>
</g>
<circle cx="212" cy="211" r="49.5" stroke="#AB916B" stroke-opacity="0.51"/>
</g>
<g id="Ellipse 6" filter="url(#filter1_f_16_30)">
<path d="M245 191C245 199.284 238.284 206 230 206C221.716 206 215 199.284 215 191C215 182.716 221.716 176 230 176C238.284 176 245 182.716 245 191Z" fill="white" fill-opacity="0.71"/>
</g>
<g id="Ellipse 7" filter="url(#filter2_f_16_30)">
<path d="M240 189C240 191.761 237.761 194 235 194C232.239 194 230 191.761 230 189C230 186.239 232.239 184 235 184C237.761 184 240 186.239 240 189Z" fill="white"/>
</g>
<g id="hall_2">
<path id="Polygon 7" d="M290.482 227.194L275.857 216.507L294.675 203.238C302.097 198.005 305.783 195.406 309.669 193.161C312.985 191.245 316.408 189.523 319.922 188.002C324.042 186.219 328.325 184.807 336.95 181.966L355.598 175.824L355.569 175.89C344.486 201.442 344.516 230.432 355.617 255.941L342.569 252.348C331.821 249.389 326.482 247.918 321.375 245.883C317.019 244.147 312.791 242.105 308.723 239.773C303.954 237.038 299.483 233.772 290.482 227.194Z" fill="#AB916B" stroke="#AB916B"/>
<g id="Ellipse 4_2">
<g filter="url(#filter3_i_16_30)">
<circle cx="320.5" cy="215.5" r="14.5" fill="white"/>
</g>
<circle cx="320.5" cy="215.5" r="14" stroke="#AB916B"/>
</g>
<path id="2" d="M315.951 223V221.722L320.752 216.466C321.316 215.85 321.78 215.315 322.144 214.861C322.509 214.401 322.779 213.971 322.954 213.568C323.134 213.161 323.224 212.735 323.224 212.29C323.224 211.778 323.101 211.336 322.854 210.962C322.613 210.588 322.281 210.299 321.86 210.095C321.439 209.892 320.965 209.79 320.44 209.79C319.881 209.79 319.393 209.906 318.977 210.138C318.565 210.365 318.245 210.685 318.018 211.097C317.795 211.508 317.684 211.991 317.684 212.545H316.008C316.008 211.693 316.204 210.945 316.597 210.301C316.99 209.657 317.525 209.155 318.202 208.795C318.884 208.436 319.649 208.256 320.496 208.256C321.349 208.256 322.104 208.436 322.762 208.795C323.42 209.155 323.936 209.641 324.31 210.251C324.684 210.862 324.871 211.542 324.871 212.29C324.871 212.825 324.774 213.348 324.58 213.859C324.391 214.366 324.059 214.932 323.586 215.557C323.117 216.177 322.466 216.935 321.633 217.829L318.366 221.324V221.437H325.127V223H315.951Z" fill="#AB916B"/>
<path id="Line 6" d="M321.572 204.589L321.751 204.603C327.484 205.042 332.041 209.594 332.486 215.326V215.326" stroke="white"/>
</g>
<g id="hall_3">
<path id="Polygon 10" d="M262.531 284.896L258.029 255.956L289.677 261.429C299.367 263.105 308.754 266.208 317.534 270.636L343.182 283.574L343.115 283.6C317.21 293.831 296.732 314.352 286.544 340.239L274.337 318.756C268.384 308.277 264.383 296.805 262.531 284.896Z" fill="#AB916B" stroke="#AB916B"/>
<g id="Ellipse 4_3">
<g filter="url(#filter4_i_16_30)">
<circle cx="292.5" cy="290.5" r="14.5" fill="white"/>
</g>
<circle cx="292.5" cy="290.5" r="14" stroke="#AB916B"/>
</g>
<path id="3" d="M292.553 298.199C291.616 298.199 290.78 298.038 290.046 297.716C289.317 297.394 288.737 296.947 288.306 296.374C287.88 295.796 287.648 295.126 287.61 294.364H289.4C289.438 294.832 289.599 295.237 289.883 295.578C290.167 295.914 290.539 296.175 290.998 296.359C291.457 296.544 291.966 296.636 292.525 296.636C293.15 296.636 293.704 296.527 294.187 296.31C294.67 296.092 295.049 295.789 295.323 295.401C295.598 295.012 295.735 294.563 295.735 294.051C295.735 293.516 295.603 293.045 295.337 292.638C295.072 292.226 294.684 291.904 294.173 291.672C293.661 291.44 293.036 291.324 292.298 291.324H291.133V289.761H292.298C292.875 289.761 293.382 289.657 293.817 289.449C294.258 289.241 294.601 288.947 294.847 288.568C295.098 288.189 295.224 287.744 295.224 287.233C295.224 286.741 295.115 286.312 294.897 285.947C294.679 285.583 294.371 285.299 293.974 285.095C293.581 284.892 293.117 284.79 292.582 284.79C292.08 284.79 291.606 284.882 291.161 285.067C290.721 285.247 290.361 285.509 290.082 285.855C289.802 286.196 289.651 286.608 289.627 287.091H287.923C287.951 286.329 288.181 285.661 288.612 285.088C289.042 284.51 289.606 284.061 290.302 283.739C291.003 283.417 291.772 283.256 292.61 283.256C293.51 283.256 294.281 283.438 294.925 283.803C295.569 284.162 296.064 284.638 296.41 285.23C296.755 285.822 296.928 286.461 296.928 287.148C296.928 287.967 296.713 288.665 296.282 289.243C295.856 289.821 295.276 290.221 294.542 290.443V290.557C295.46 290.708 296.178 291.099 296.694 291.729C297.21 292.354 297.468 293.128 297.468 294.051C297.468 294.842 297.253 295.552 296.822 296.182C296.396 296.807 295.813 297.299 295.075 297.659C294.336 298.019 293.496 298.199 292.553 298.199Z" fill="#AB916B"/>
<path id="Line 6_2" d="M293.572 279.589L293.751 279.603C299.484 280.042 304.041 284.594 304.486 290.326V290.326" stroke="white"/>
</g>
<g id="hall_4">
<path id="Polygon 6" d="M195.916 291.504L213.196 267.857L231.705 294.106C237.371 302.142 241.815 310.974 244.892 320.314L253.879 347.598L253.813 347.569C228.262 336.486 199.271 336.516 173.762 347.617L180.322 323.795C183.521 312.176 188.805 301.234 195.916 291.504Z" fill="#AB916B" stroke="#AB916B"/>
<g id="Ellipse 4_4">
<g filter="url(#filter5_i_16_30)">
<circle cx="213.5" cy="312.5" r="14.5" fill="white"/>
</g>
<circle cx="213.5" cy="312.5" r="14" stroke="#AB916B"/>
</g>
<path id="4" d="M208.249 317.017V315.568L214.641 305.455H215.692V307.699H214.982L210.152 315.341V315.455H218.76V317.017H208.249ZM215.095 320V316.577V315.902V305.455H216.771V320H215.095Z" fill="#AB916B"/>
<path id="Line 6_3" d="M214.572 301.589L214.751 301.603C220.484 302.042 225.041 306.594 225.486 312.326V312.326" stroke="white"/>
</g>
<g id="hall_5">
<path id="Polygon 11" d="M136.506 258.531L165.446 254.029L159.973 285.677C158.297 295.367 155.194 304.754 150.766 313.534L137.828 339.182L137.802 339.115C127.571 313.21 107.05 292.732 81.1628 282.544L102.646 270.337C113.125 264.384 124.598 260.383 136.506 258.531Z" fill="#AB916B" stroke="#AB916B"/>
<g id="Ellipse 4_5">
<g filter="url(#filter6_i_16_30)">
<circle cx="132.5" cy="286.5" r="14.5" fill="white"/>
</g>
<circle cx="132.5" cy="286.5" r="14" stroke="#AB916B"/>
</g>
<path id="5" d="M132.467 294.199C131.634 294.199 130.883 294.033 130.216 293.702C129.548 293.37 129.013 292.916 128.611 292.338C128.208 291.76 127.988 291.102 127.95 290.364H129.655C129.721 291.022 130.019 291.566 130.55 291.997C131.085 292.423 131.724 292.636 132.467 292.636C133.064 292.636 133.594 292.497 134.058 292.217C134.527 291.938 134.894 291.554 135.159 291.067C135.429 290.574 135.564 290.018 135.564 289.398C135.564 288.763 135.424 288.197 135.145 287.7C134.87 287.198 134.491 286.803 134.008 286.514C133.525 286.225 132.974 286.079 132.354 286.074C131.908 286.069 131.452 286.138 130.983 286.28C130.514 286.417 130.128 286.595 129.825 286.812L128.177 286.614L129.058 279.455H136.615V281.017H130.535L130.024 285.307H130.109C130.408 285.07 130.782 284.874 131.231 284.717C131.681 284.561 132.15 284.483 132.638 284.483C133.528 284.483 134.321 284.696 135.017 285.122C135.718 285.544 136.267 286.121 136.665 286.855C137.067 287.589 137.268 288.427 137.268 289.369C137.268 290.297 137.06 291.126 136.643 291.855C136.231 292.58 135.663 293.152 134.939 293.574C134.214 293.991 133.39 294.199 132.467 294.199Z" fill="#AB916B"/>
<path id="Line 6_4" d="M133.572 275.589L133.752 275.603C139.484 276.042 144.041 280.594 144.486 286.326V286.326" stroke="white"/>
</g>
<g id="hall_6">
<path id="Polygon 9" d="M124.996 196.916L148.643 214.196L122.394 232.705C114.358 238.371 105.526 242.815 96.1858 245.892L68.9022 254.879L68.9309 254.813C80.0136 229.262 79.9841 200.271 68.8828 174.762L92.7052 181.322C104.324 184.521 115.266 189.805 124.996 196.916Z" fill="#AB916B" stroke="#AB916B"/>
<g id="Ellipse 4_6">
<g filter="url(#filter7_i_16_30)">
<circle cx="101.5" cy="214.5" r="14.5" fill="white"/>
</g>
<circle cx="101.5" cy="214.5" r="14" stroke="#AB916B"/>
</g>
<path id="6" d="M101.595 222.199C100.998 222.189 100.402 222.076 99.8052 221.858C99.2086 221.64 98.6641 221.273 98.1717 220.757C97.6793 220.236 97.2839 219.533 96.9856 218.648C96.6873 217.758 96.5382 216.64 96.5382 215.295C96.5382 214.008 96.6589 212.866 96.9004 211.872C97.1419 210.873 97.4922 210.033 97.9515 209.351C98.4108 208.664 98.9648 208.143 99.6135 207.788C100.267 207.433 101.003 207.256 101.822 207.256C102.637 207.256 103.361 207.419 103.996 207.746C104.635 208.068 105.156 208.518 105.558 209.095C105.961 209.673 106.221 210.338 106.339 211.091H104.606C104.445 210.437 104.133 209.895 103.669 209.464C103.205 209.034 102.589 208.818 101.822 208.818C100.695 208.818 99.8076 209.308 99.1589 210.288C98.515 211.268 98.1906 212.644 98.1859 214.415H98.2995C98.5647 214.012 98.8796 213.669 99.2441 213.385C99.6135 213.096 100.021 212.874 100.466 212.717C100.911 212.561 101.382 212.483 101.879 212.483C102.712 212.483 103.475 212.691 104.166 213.108C104.857 213.52 105.411 214.09 105.828 214.82C106.245 215.544 106.453 216.375 106.453 217.312C106.453 218.212 106.252 219.036 105.849 219.784C105.447 220.527 104.881 221.119 104.152 221.56C103.427 221.995 102.575 222.208 101.595 222.199ZM101.595 220.636C102.192 220.636 102.727 220.487 103.2 220.189C103.678 219.891 104.055 219.491 104.329 218.989C104.609 218.487 104.748 217.928 104.748 217.312C104.748 216.711 104.613 216.164 104.344 215.672C104.078 215.175 103.711 214.779 103.243 214.486C102.779 214.192 102.248 214.045 101.652 214.045C101.202 214.045 100.783 214.135 100.395 214.315C100.006 214.491 99.6655 214.732 99.372 215.04C99.0832 215.348 98.8559 215.7 98.6902 216.098C98.5244 216.491 98.4416 216.905 98.4416 217.341C98.4416 217.919 98.5765 218.458 98.8464 218.96C99.121 219.462 99.4951 219.867 99.9686 220.175C100.447 220.482 100.989 220.636 101.595 220.636Z" fill="#AB916B"/>
<path id="Line 6_5" d="M102.572 203.589L102.751 203.603C108.484 204.042 113.041 208.594 113.486 214.326V214.326" stroke="white"/>
</g>
<g id="hall_7">
<path id="Polygon 12" d="M161.871 142.506L166.373 171.446L134.725 165.973C125.035 164.297 115.648 161.194 106.868 156.766L81.2204 143.828L81.2875 143.802C107.192 133.571 127.67 113.05 137.859 87.1628L150.065 108.646C156.019 119.125 160.019 130.598 161.871 142.506Z" fill="#AB916B" stroke="#AB916B"/>
<g id="Ellipse 4_7">
<g filter="url(#filter8_i_16_30)">
<circle cx="133.5" cy="140.5" r="14.5" fill="white"/>
</g>
<circle cx="133.5" cy="140.5" r="14" stroke="#AB916B"/>
</g>
<path id="7" d="M129.247 148L135.753 135.131V135.017H128.253V133.455H137.571V135.102L131.094 148H129.247Z" fill="#AB916B"/>
<path id="Line 6_6" d="M134.572 129.589L134.752 129.603C140.484 130.042 145.041 134.594 145.486 140.326V140.326" stroke="white"/>
</g>
<g id="hall_8">
<path id="Polygon 14" d="M231.788 130.996L214.507 154.643L195.999 128.394C190.332 120.358 185.888 111.526 182.811 102.186L173.824 74.9022L173.89 74.9309C199.442 86.0136 228.432 85.9841 253.941 74.8828L247.382 98.7052C244.182 110.324 238.898 121.266 231.788 130.996Z" fill="#AB916B" stroke="#AB916B"/>
<g id="Ellipse 4_8">
<g filter="url(#filter9_i_16_30)">
<circle cx="214.5" cy="105.5" r="14.5" fill="white"/>
</g>
<circle cx="214.5" cy="105.5" r="14" stroke="#AB916B"/>
</g>
<path id="8" d="M214.503 113.199C213.527 113.199 212.666 113.026 211.917 112.68C211.174 112.33 210.594 111.849 210.177 111.239C209.761 110.623 209.555 109.922 209.559 109.136C209.555 108.521 209.675 107.953 209.922 107.432C210.168 106.906 210.504 106.468 210.93 106.118C211.361 105.763 211.842 105.538 212.372 105.443V105.358C211.676 105.178 211.122 104.787 210.71 104.186C210.298 103.58 210.095 102.891 210.099 102.119C210.095 101.381 210.282 100.72 210.66 100.138C211.039 99.5554 211.56 99.0961 212.223 98.7599C212.89 98.4238 213.65 98.2557 214.503 98.2557C215.345 98.2557 216.098 98.4238 216.761 98.7599C217.424 99.0961 217.945 99.5554 218.324 100.138C218.707 100.72 218.901 101.381 218.906 102.119C218.901 102.891 218.691 103.58 218.274 104.186C217.862 104.787 217.315 105.178 216.633 105.358V105.443C217.159 105.538 217.632 105.763 218.054 106.118C218.475 106.468 218.811 106.906 219.062 107.432C219.313 107.953 219.441 108.521 219.446 109.136C219.441 109.922 219.228 110.623 218.807 111.239C218.39 111.849 217.81 112.33 217.067 112.68C216.328 113.026 215.473 113.199 214.503 113.199ZM214.503 111.636C215.161 111.636 215.729 111.53 216.207 111.317C216.685 111.104 217.055 110.803 217.315 110.415C217.576 110.027 217.708 109.572 217.713 109.051C217.708 108.502 217.566 108.017 217.287 107.595C217.007 107.174 216.626 106.842 216.143 106.601C215.665 106.359 215.118 106.239 214.503 106.239C213.882 106.239 213.328 106.359 212.841 106.601C212.358 106.842 211.977 107.174 211.697 107.595C211.423 108.017 211.288 108.502 211.292 109.051C211.288 109.572 211.413 110.027 211.669 110.415C211.929 110.803 212.301 111.104 212.784 111.317C213.267 111.53 213.84 111.636 214.503 111.636ZM214.503 104.733C215.023 104.733 215.485 104.629 215.888 104.42C216.295 104.212 216.614 103.921 216.846 103.547C217.078 103.173 217.197 102.735 217.202 102.233C217.197 101.741 217.081 101.312 216.854 100.947C216.626 100.578 216.311 100.294 215.909 100.095C215.506 99.8916 215.038 99.7898 214.503 99.7898C213.958 99.7898 213.482 99.8916 213.075 100.095C212.668 100.294 212.353 100.578 212.131 100.947C211.908 101.312 211.799 101.741 211.804 102.233C211.799 102.735 211.91 103.173 212.138 103.547C212.37 103.921 212.689 104.212 213.096 104.42C213.504 104.629 213.972 104.733 214.503 104.733Z" fill="#AB916B"/>
<path id="Line 6_7" d="M215.572 94.5893L215.751 94.603C221.484 95.042 226.041 99.5938 226.486 105.326V105.326" stroke="white"/>
</g>
<g id="hall_1">
<path id="Polygon 13" d="M276.854 167.589L258.956 170.373L262.88 147.684C264.427 138.736 265.196 134.292 266.357 129.956C267.347 126.257 268.549 122.618 269.959 119.058C271.611 114.885 273.642 110.858 277.731 102.75L286.574 85.2204L286.6 85.2874C296.831 111.192 317.352 131.67 343.239 141.858L331.472 148.544C321.779 154.052 316.964 156.786 311.914 158.959C307.606 160.811 303.173 162.357 298.647 163.585C293.341 165.024 287.87 165.875 276.854 167.589Z" fill="#AB916B" stroke="#AB916B"/>
<g id="Ellipse 4_9">
<g filter="url(#filter10_i_16_30)">
<circle cx="290.5" cy="140.5" r="14.5" fill="white"/>
</g>
<circle cx="290.5" cy="140.5" r="14" stroke="#AB916B"/>
</g>
<path id="1" d="M291.971 133.454V148H290.209V135.301H290.124L286.573 137.659V135.869L290.209 133.454H291.971Z" fill="#AB916B"/>
<path id="Line 6_8" d="M291.572 129.589L291.751 129.603C297.484 130.042 302.041 134.594 302.486 140.326V140.326" stroke="white"/>
</g>
</g>
<defs>
<filter id="filter0_i_16_30" x="162" y="161" width="100" height="104" filterUnits="userSpaceOnUse" color-interpolation-filters="sRGB">
<feFlood flood-opacity="0" result="BackgroundImageFix"/>
<feBlend mode="normal" in="SourceGraphic" in2="BackgroundImageFix" result="shape"/>
<feColorMatrix in="SourceAlpha" type="matrix" values="0 0 0 0 0 0 0 0 0 0 0 0 0 0 0 0 0 0 127 0" result="hardAlpha"/>
<feOffset dy="4"/>
<feGaussianBlur stdDeviation="2"/>
<feComposite in2="hardAlpha" operator="arithmetic" k2="-1" k3="1"/>
<feColorMatrix type="matrix" values="0 0 0 0 0 0 0 0 0 0 0 0 0 0 0 0 0 0 0.25 0"/>
<feBlend mode="normal" in2="shape" result="effect1_innerShadow_16_30"/>
</filter>
<filter id="filter1_f_16_30" x="211" y="172" width="38" height="38" filterUnits="userSpaceOnUse" color-interpolation-filters="sRGB">
<feFlood flood-opacity="0" result="BackgroundImageFix"/>
<feBlend mode="normal" in="SourceGraphic" in2="BackgroundImageFix" result="shape"/>
<feGaussianBlur stdDeviation="2" result="effect1_foregroundBlur_16_30"/>
</filter>
<filter id="filter2_f_16_30" x="226" y="180" width="18" height="18" filterUnits="userSpaceOnUse" color-interpolation-filters="sRGB">
<feFlood flood-opacity="0" result="BackgroundImageFix"/>
<feBlend mode="normal" in="SourceGraphic" in2="BackgroundImageFix" result="shape"/>
<feGaussianBlur stdDeviation="2" result="effect1_foregroundBlur_16_30"/>
</filter>
<filter id="filter3_i_16_30" x="306" y="201" width="29" height="33" filterUnits="userSpaceOnUse" color-interpolation-filters="sRGB">
<feFlood flood-opacity="0" result="BackgroundImageFix"/>
<feBlend mode="normal" in="SourceGraphic" in2="BackgroundImageFix" result="shape"/>
<feColorMatrix in="SourceAlpha" type="matrix" values="0 0 0 0 0 0 0 0 0 0 0 0 0 0 0 0 0 0 127 0" result="hardAlpha"/>
<feOffset dy="4"/>
<feGaussianBlur stdDeviation="2"/>
<feComposite in2="hardAlpha" operator="arithmetic" k2="-1" k3="1"/>
<feColorMatrix type="matrix" values="0 0 0 0 0 0 0 0 0 0 0 0 0 0 0 0 0 0 0.25 0"/>
<feBlend mode="normal" in2="shape" result="effect1_innerShadow_16_30"/>
</filter>
<filter id="filter4_i_16_30" x="278" y="276" width="29" height="33" filterUnits="userSpaceOnUse" color-interpolation-filters="sRGB">
<feFlood flood-opacity="0" result="BackgroundImageFix"/>
<feBlend mode="normal" in="SourceGraphic" in2="BackgroundImageFix" result="shape"/>
<feColorMatrix in="SourceAlpha" type="matrix" values="0 0 0 0 0 0 0 0 0 0 0 0 0 0 0 0 0 0 127 0" result="hardAlpha"/>
<feOffset dy="4"/>
<feGaussianBlur stdDeviation="2"/>
<feComposite in2="hardAlpha" operator="arithmetic" k2="-1" k3="1"/>
<feColorMatrix type="matrix" values="0 0 0 0 0 0 0 0 0 0 0 0 0 0 0 0 0 0 0.25 0"/>
<feBlend mode="normal" in2="shape" result="effect1_innerShadow_16_30"/>
</filter>
<filter id="filter5_i_16_30" x="199" y="298" width="29" height="33" filterUnits="userSpaceOnUse" color-interpolation-filters="sRGB">
<feFlood flood-opacity="0" result="BackgroundImageFix"/>
<feBlend mode="normal" in="SourceGraphic" in2="BackgroundImageFix" result="shape"/>
<feColorMatrix in="SourceAlpha" type="matrix" values="0 0 0 0 0 0 0 0 0 0 0 0 0 0 0 0 0 0 127 0" result="hardAlpha"/>
<feOffset dy="4"/>
<feGaussianBlur stdDeviation="2"/>
<feComposite in2="hardAlpha" operator="arithmetic" k2="-1" k3="1"/>
<feColorMatrix type="matrix" values="0 0 0 0 0 0 0 0 0 0 0 0 0 0 0 0 0 0 0.25 0"/>
<feBlend mode="normal" in2="shape" result="effect1_innerShadow_16_30"/>
</filter>
<filter id="filter6_i_16_30" x="118" y="272" width="29" height="33" filterUnits="userSpaceOnUse" color-interpolation-filters="sRGB">
<feFlood flood-opacity="0" result="BackgroundImageFix"/>
<feBlend mode="normal" in="SourceGraphic" in2="BackgroundImageFix" result="shape"/>
<feColorMatrix in="SourceAlpha" type="matrix" values="0 0 0 0 0 0 0 0 0 0 0 0 0 0 0 0 0 0 127 0" result="hardAlpha"/>
<feOffset dy="4"/>
<feGaussianBlur stdDeviation="2"/>
<feComposite in2="hardAlpha" operator="arithmetic" k2="-1" k3="1"/>
<feColorMatrix type="matrix" values="0 0 0 0 0 0 0 0 0 0 0 0 0 0 0 0 0 0 0.25 0"/>
<feBlend mode="normal" in2="shape" result="effect1_innerShadow_16_30"/>
</filter>
<filter id="filter7_i_16_30" x="87" y="200" width="29" height="33" filterUnits="userSpaceOnUse" color-interpolation-filters="sRGB">
<feFlood flood-opacity="0" result="BackgroundImageFix"/>
<feBlend mode="normal" in="SourceGraphic" in2="BackgroundImageFix" result="shape"/>
<feColorMatrix in="SourceAlpha" type="matrix" values="0 0 0 0 0 0 0 0 0 0 0 0 0 0 0 0 0 0 127 0" result="hardAlpha"/>
<feOffset dy="4"/>
<feGaussianBlur stdDeviation="2"/>
<feComposite in2="hardAlpha" operator="arithmetic" k2="-1" k3="1"/>
<feColorMatrix type="matrix" values="0 0 0 0 0 0 0 0 0 0 0 0 0 0 0 0 0 0 0.25 0"/>
<feBlend mode="normal" in2="shape" result="effect1_innerShadow_16_30"/>
</filter>
<filter id="filter8_i_16_30" x="119" y="126" width="29" height="33" filterUnits="userSpaceOnUse" color-interpolation-filters="sRGB">
<feFlood flood-opacity="0" result="BackgroundImageFix"/>
<feBlend mode="normal" in="SourceGraphic" in2="BackgroundImageFix" result="shape"/>
<feColorMatrix in="SourceAlpha" type="matrix" values="0 0 0 0 0 0 0 0 0 0 0 0 0 0 0 0 0 0 127 0" result="hardAlpha"/>
<feOffset dy="4"/>
<feGaussianBlur stdDeviation="2"/>
<feComposite in2="hardAlpha" operator="arithmetic" k2="-1" k3="1"/>
<feColorMatrix type="matrix" values="0 0 0 0 0 0 0 0 0 0 0 0 0 0 0 0 0 0 0.25 0"/>
<feBlend mode="normal" in2="shape" result="effect1_innerShadow_16_30"/>
</filter>
<filter id="filter9_i_16_30" x="200" y="91" width="29" height="33" filterUnits="userSpaceOnUse" color-interpolation-filters="sRGB">
<feFlood flood-opacity="0" result="BackgroundImageFix"/>
<feBlend mode="normal" in="SourceGraphic" in2="BackgroundImageFix" result="shape"/>
<feColorMatrix in="SourceAlpha" type="matrix" values="0 0 0 0 0 0 0 0 0 0 0 0 0 0 0 0 0 0 127 0" result="hardAlpha"/>
<feOffset dy="4"/>
<feGaussianBlur stdDeviation="2"/>
<feComposite in2="hardAlpha" operator="arithmetic" k2="-1" k3="1"/>
<feColorMatrix type="matrix" values="0 0 0 0 0 0 0 0 0 0 0 0 0 0 0 0 0 0 0.25 0"/>
<feBlend mode="normal" in2="shape" result="effect1_innerShadow_16_30"/>
</filter>
<filter id="filter10_i_16_30" x="276" y="126" width="29" height="33" filterUnits="userSpaceOnUse" color-interpolation-filters="sRGB">
<feFlood flood-opacity="0" result="BackgroundImageFix"/>
<feBlend mode="normal" in="SourceGraphic" in2="BackgroundImageFix" result="shape"/>
<feColorMatrix in="SourceAlpha" type="matrix" values="0 0 0 0 0 0 0 0 0 0 0 0 0 0 0 0 0 0 127 0" result="hardAlpha"/>
<feOffset dy="4"/>
<feGaussianBlur stdDeviation="2"/>
<feComposite in2="hardAlpha" operator="arithmetic" k2="-1" k3="1"/>
<feColorMatrix type="matrix" values="0 0 0 0 0 0 0 0 0 0 0 0 0 0 0 0 0 0 0.25 0"/>
<feBlend mode="normal" in2="shape" result="effect1_innerShadow_16_30"/>
</filter>
</defs>
</svg>
